<svg width="86" height="53" viewBox="0 0 86 53" fill="none" xmlns="http://www.w3.org/2000/svg">
<path d="M13.728 45H9.744V11.88H1.44V11.4H22.08V11.88H13.728V45ZM42.6833 45.192C36.6993 45.192 32.2673 43.496 29.3873 40.104C28.3633 38.888 27.5313 37.272 26.8913 35.256C26.2513 33.24 25.9313 30.792 25.9313 27.912C25.9313 25.032 26.3953 22.456 27.3233 20.184C28.2833 17.88 29.5793 16.104 31.2113 14.856C34.3793 12.52 38.2033 11.352 42.6833 11.352C44.1233 11.352 45.5313 11.464 46.9073 11.688C48.2833 11.88 49.3073 12.088 49.9792 12.312L50.9873 12.648L50.8433 13.128C48.3473 12.264 45.6273 11.832 42.6833 11.832C39.2913 11.832 36.4593 12.936 34.1873 15.144C32.4593 16.776 31.2433 19.176 30.5393 22.344C30.1233 24.136 29.9153 26.328 29.9153 28.92C29.9153 31.512 30.2833 33.912 31.0193 36.12C31.7553 38.296 32.5873 39.912 33.5153 40.968C34.4753 42.024 35.6273 42.872 36.9713 43.512C38.3153 44.12 39.3873 44.472 40.1873 44.568C40.9873 44.664 41.9313 44.712 43.0193 44.712C44.1393 44.712 45.6273 44.584 47.4833 44.328V34.44H41.6753V33.96H53.5312V34.44H51.4673V43.896C49.0353 44.76 46.1073 45.192 42.6833 45.192ZM58.0631 11.784C61.7751 11.528 65.0551 11.4 67.9031 11.4C75.8071 11.4 79.7591 14.04 79.7591 19.32C79.7591 21.304 79.1831 23.016 78.0311 24.456C76.8791 25.864 75.0391 26.824 72.5111 27.336C74.9431 27.624 76.8631 28.36 78.2711 29.544C79.6791 30.728 80.3831 32.792 80.3831 35.736C80.3831 41.912 76.4311 45 68.5271 45H58.0631V11.784ZM62.0471 44.52H68.5271C71.3751 44.52 73.3911 43.784 74.5751 42.312C75.7911 40.808 76.3991 38.52 76.3991 35.448C76.3991 32.376 75.7911 30.328 74.5751 29.304C73.3591 28.28 71.5511 27.736 69.1511 27.672H62.0471V44.52ZM67.9031 11.88C66.0471 11.88 64.0951 11.992 62.0471 12.216V27.192H69.1511C73.6631 27 75.9191 24.408 75.9191 19.416C75.9191 16.984 75.2471 15.128 73.9031 13.848C72.5591 12.536 70.5591 11.88 67.9031 11.88Z" fill="black"/>
</svg>
